<svg width="288" height="288" viewBox="0 0 288 288" fill="none" xmlns="http://www.w3.org/2000/svg">
<rect width="288" height="288" rx="24" fill="url(#paint0_linear_1_155)"/>
<path d="M101.041 229.999H61.3176C58.0509 229.999 54.9179 228.701 52.608 226.391C50.298 224.081 49.0003 220.948 49.0003 217.681C48.9854 215.524 49.5376 213.4 50.6015 211.523L133.251 64.2076C133.782 63.2565 134.446 62.3856 135.222 61.621C135.992 60.8249 136.886 60.1593 137.87 59.6502C139.742 58.5691 141.866 58 144.028 58C146.191 58 148.315 58.5691 150.187 59.6502C151.142 60.1764 152.013 60.8405 152.774 61.621C153.625 62.4336 154.351 63.3675 154.929 64.3924L237.517 211.523C238.606 213.408 239.175 215.548 239.168 217.725C239.16 219.902 238.576 222.038 237.475 223.915C236.373 225.793 234.793 227.345 232.897 228.414C231 229.482 228.854 230.029 226.678 229.999H187.077C182.957 222.17 176.746 215.636 169.136 211.124C161.525 206.613 152.813 204.299 143.967 204.44C135.119 204.292 126.404 206.603 118.793 211.115C111.181 215.628 104.971 222.165 100.856 229.999H101.041Z" fill="url(#paint1_linear_1_155)"/>
<path opacity="0.27" d="M133.562 171.492L144.771 157.389H150.56L140.214 171.43L133.562 171.492Z" fill="url(#paint2_linear_1_155)"/>
<path opacity="0.22" d="M142.429 136.572H159.858L154.932 142.731L137.934 142.3L142.429 136.572Z" fill="url(#paint3_linear_1_155)"/>
<path d="M142.485 136.572L123.209 161.207C122.26 162.203 121.73 163.526 121.73 164.902C121.73 166.278 122.26 167.601 123.209 168.597C124.308 169.844 125.699 170.799 127.257 171.379C128.814 171.96 130.491 172.146 132.139 171.923L146.057 154.74L159.853 136.572H142.485Z" fill="white"/>
<path d="M144.767 157.512H160.657C160.657 157.512 165.276 158.62 166.507 161.453C167.186 163.302 167.186 165.332 166.507 167.181C166.507 167.181 164.906 171.492 161.211 171.492H133.682L144.767 157.512Z" fill="white"/>
<path d="M129.495 122.53H156.962C158.596 122.53 160.162 123.179 161.317 124.334C162.472 125.489 163.121 127.056 163.121 128.689C163.121 130.322 162.472 131.889 161.317 133.044C160.162 134.199 158.596 134.848 156.962 134.848H129.495C127.861 134.848 126.295 134.199 125.14 133.044C123.985 131.889 123.336 130.322 123.336 128.689C123.336 127.056 123.985 125.489 125.14 124.334C126.295 123.179 127.861 122.53 129.495 122.53Z" fill="white"/>
<defs>
<linearGradient id="paint0_linear_1_155" x1="144" y1="0" x2="144" y2="288" gradientUnits="userSpaceOnUse">
<stop stop-color="white"/>
<stop offset="1" stop-color="white" stop-opacity="0.8"/>
</linearGradient>
<linearGradient id="paint1_linear_1_155" x1="144.084" y1="58" x2="144.084" y2="283" gradientUnits="userSpaceOnUse">
<stop stop-color="#0B749F"/>
<stop offset="1" stop-color="#05445E"/>
</linearGradient>
<linearGradient id="paint2_linear_1_155" x1="-158.851" y1="467.886" x2="-158.851" y2="468.027" gradientUnits="userSpaceOnUse">
<stop stop-color="white"/>
<stop offset="1" stop-color="#A7ACAD"/>
</linearGradient>
<linearGradient id="paint3_linear_1_155" x1="133.152" y1="417.099" x2="133.152" y2="416.607" gradientUnits="userSpaceOnUse">
<stop stop-color="#A7ACAD"/>
<stop offset="1" stop-color="white"/>
</linearGradient>
</defs>
</svg>
